<mxfile host="www.draw.io" modified="2020-01-30T13:32:42.913Z" agent="Mozilla/5.0 (Macintosh; Intel Mac OS X 10_14_0) AppleWebKit/537.36 (KHTML, like Gecko) Chrome/79.0.3945.130 Safari/537.36" etag="YH5C5abbnk8FIhoihhDL" version="12.6.2" type="github">
  <diagram id="Uc6WzdaAGhAkO1jN_Mr-" name="Page-1">
    <mxGraphModel dx="932" dy="577" grid="1" gridSize="10" guides="1" tooltips="1" connect="1" arrows="1" fold="1" page="1" pageScale="1" pageWidth="827" pageHeight="1169" math="0" shadow="0">
      <root>
        <mxCell id="0"/>
        <mxCell id="1" parent="0"/>
        <mxCell id="2YxNK9GWlURTmFyG-tGR-2" style="edgeStyle=orthogonalEdgeStyle;rounded=0;orthogonalLoop=1;jettySize=auto;html=1;exitX=0.5;exitY=1;exitDx=0;exitDy=0;entryX=0.6;entryY=-0.012;entryDx=0;entryDy=0;entryPerimeter=0;startArrow=classic;startFill=1;" edge="1" parent="1" source="uU6eGpP00uYK1Dtke5dS-1" target="uU6eGpP00uYK1Dtke5dS-14">
          <mxGeometry relative="1" as="geometry"/>
        </mxCell>
        <mxCell id="uU6eGpP00uYK1Dtke5dS-1" value="类加载子系统" style="rounded=0;whiteSpace=wrap;html=1;fillColor=#fff2cc;strokeColor=#d6b656;" parent="1" vertex="1">
          <mxGeometry x="311" y="40" width="142" height="50" as="geometry"/>
        </mxCell>
        <mxCell id="uU6eGpP00uYK1Dtke5dS-16" style="edgeStyle=orthogonalEdgeStyle;rounded=0;orthogonalLoop=1;jettySize=auto;html=1;exitX=1;exitY=0.5;exitDx=0;exitDy=0;entryX=0.5;entryY=0;entryDx=0;entryDy=0;endArrow=classic;endFill=1;startArrow=classic;startFill=1;" parent="1" source="uU6eGpP00uYK1Dtke5dS-14" target="uU6eGpP00uYK1Dtke5dS-2" edge="1">
          <mxGeometry relative="1" as="geometry"/>
        </mxCell>
        <mxCell id="uU6eGpP00uYK1Dtke5dS-14" value="" style="rounded=0;whiteSpace=wrap;html=1;fillColor=#f5f5f5;strokeColor=#666666;fontColor=#333333;" parent="1" vertex="1">
          <mxGeometry x="130" y="140" width="420" height="170" as="geometry"/>
        </mxCell>
        <mxCell id="uU6eGpP00uYK1Dtke5dS-2" value="垃圾回收系统" style="rounded=0;whiteSpace=wrap;html=1;fillColor=#fff2cc;strokeColor=#d6b656;" parent="1" vertex="1">
          <mxGeometry x="650" y="255" width="140" height="55" as="geometry"/>
        </mxCell>
        <mxCell id="uU6eGpP00uYK1Dtke5dS-20" style="edgeStyle=orthogonalEdgeStyle;rounded=0;orthogonalLoop=1;jettySize=auto;html=1;entryX=0.167;entryY=1.029;entryDx=0;entryDy=0;entryPerimeter=0;startArrow=classic;startFill=1;endArrow=classic;endFill=1;" parent="1" source="uU6eGpP00uYK1Dtke5dS-3" target="uU6eGpP00uYK1Dtke5dS-14" edge="1">
          <mxGeometry relative="1" as="geometry"/>
        </mxCell>
        <mxCell id="uU6eGpP00uYK1Dtke5dS-23" style="edgeStyle=orthogonalEdgeStyle;rounded=0;orthogonalLoop=1;jettySize=auto;html=1;entryX=0;entryY=0.5;entryDx=0;entryDy=0;startArrow=classic;startFill=1;endArrow=classic;endFill=1;" parent="1" source="uU6eGpP00uYK1Dtke5dS-3" target="uU6eGpP00uYK1Dtke5dS-19" edge="1">
          <mxGeometry relative="1" as="geometry"/>
        </mxCell>
        <mxCell id="uU6eGpP00uYK1Dtke5dS-3" value="执行引擎" style="rounded=0;whiteSpace=wrap;html=1;fillColor=#fff2cc;strokeColor=#d6b656;" parent="1" vertex="1">
          <mxGeometry x="130" y="380" width="140" height="54" as="geometry"/>
        </mxCell>
        <mxCell id="uU6eGpP00uYK1Dtke5dS-4" value="方法区" style="rounded=0;whiteSpace=wrap;html=1;fillColor=#dae8fc;strokeColor=#6c8ebf;" parent="1" vertex="1">
          <mxGeometry x="140" y="180" width="120" height="50" as="geometry"/>
        </mxCell>
        <mxCell id="uU6eGpP00uYK1Dtke5dS-6" value="Java堆" style="rounded=0;whiteSpace=wrap;html=1;fillColor=#dae8fc;strokeColor=#6c8ebf;" parent="1" vertex="1">
          <mxGeometry x="270" y="180" width="120" height="50" as="geometry"/>
        </mxCell>
        <mxCell id="uU6eGpP00uYK1Dtke5dS-7" value="直接内存" style="rounded=0;whiteSpace=wrap;html=1;fillColor=#dae8fc;strokeColor=#6c8ebf;" parent="1" vertex="1">
          <mxGeometry x="140" y="250" width="120" height="50" as="geometry"/>
        </mxCell>
        <mxCell id="uU6eGpP00uYK1Dtke5dS-8" value="Java栈" style="rounded=0;whiteSpace=wrap;html=1;fillColor=#d5e8d4;strokeColor=#82b366;" parent="1" vertex="1">
          <mxGeometry x="400" y="180" width="120" height="50" as="geometry"/>
        </mxCell>
        <mxCell id="uU6eGpP00uYK1Dtke5dS-9" value="本地方法栈" style="rounded=0;whiteSpace=wrap;html=1;fillColor=#e1d5e7;strokeColor=#9673a6;" parent="1" vertex="1">
          <mxGeometry x="270" y="250" width="120" height="50" as="geometry"/>
        </mxCell>
        <mxCell id="uU6eGpP00uYK1Dtke5dS-10" value="PC寄存器" style="rounded=0;whiteSpace=wrap;html=1;fillColor=#d5e8d4;strokeColor=#82b366;" parent="1" vertex="1">
          <mxGeometry x="400" y="250" width="120" height="50" as="geometry"/>
        </mxCell>
        <mxCell id="uU6eGpP00uYK1Dtke5dS-13" style="edgeStyle=orthogonalEdgeStyle;rounded=0;orthogonalLoop=1;jettySize=auto;html=1;exitX=1;exitY=0.5;exitDx=0;exitDy=0;entryX=0;entryY=0.5;entryDx=0;entryDy=0;" parent="1" source="uU6eGpP00uYK1Dtke5dS-12" target="uU6eGpP00uYK1Dtke5dS-1" edge="1">
          <mxGeometry relative="1" as="geometry"/>
        </mxCell>
        <mxCell id="uU6eGpP00uYK1Dtke5dS-12" value="&lt;font style=&quot;font-size: 18px&quot;&gt;class文件&lt;/font&gt;" style="text;html=1;strokeColor=none;fillColor=none;align=center;verticalAlign=middle;whiteSpace=wrap;rounded=0;" parent="1" vertex="1">
          <mxGeometry x="130" y="45" width="80" height="40" as="geometry"/>
        </mxCell>
        <mxCell id="uU6eGpP00uYK1Dtke5dS-17" value="内存空间" style="text;html=1;strokeColor=none;fillColor=none;align=center;verticalAlign=middle;whiteSpace=wrap;rounded=0;" parent="1" vertex="1">
          <mxGeometry x="310" y="140" width="70" height="20" as="geometry"/>
        </mxCell>
        <mxCell id="uU6eGpP00uYK1Dtke5dS-18" value="本地方法库" style="rounded=0;whiteSpace=wrap;html=1;fillColor=#fff2cc;strokeColor=#d6b656;" parent="1" vertex="1">
          <mxGeometry x="530" y="380" width="140" height="54" as="geometry"/>
        </mxCell>
        <mxCell id="uU6eGpP00uYK1Dtke5dS-24" style="edgeStyle=orthogonalEdgeStyle;rounded=0;orthogonalLoop=1;jettySize=auto;html=1;exitX=1;exitY=0.5;exitDx=0;exitDy=0;entryX=0;entryY=0.5;entryDx=0;entryDy=0;startArrow=classic;startFill=1;endArrow=none;endFill=0;" parent="1" source="uU6eGpP00uYK1Dtke5dS-19" target="uU6eGpP00uYK1Dtke5dS-18" edge="1">
          <mxGeometry relative="1" as="geometry"/>
        </mxCell>
        <mxCell id="uU6eGpP00uYK1Dtke5dS-19" value="本地方法接口" style="rounded=0;whiteSpace=wrap;html=1;fillColor=#fff2cc;strokeColor=#d6b656;" parent="1" vertex="1">
          <mxGeometry x="328" y="380" width="140" height="54" as="geometry"/>
        </mxCell>
        <mxCell id="uU6eGpP00uYK1Dtke5dS-21" value="垃圾回收" style="text;html=1;strokeColor=none;fillColor=none;align=center;verticalAlign=middle;whiteSpace=wrap;rounded=0;" parent="1" vertex="1">
          <mxGeometry x="590" y="200" width="70" height="20" as="geometry"/>
        </mxCell>
        <mxCell id="uU6eGpP00uYK1Dtke5dS-22" value="下发指令&lt;br&gt;数据交换" style="text;html=1;strokeColor=none;fillColor=none;align=center;verticalAlign=middle;whiteSpace=wrap;rounded=0;" parent="1" vertex="1">
          <mxGeometry x="200" y="340" width="70" height="20" as="geometry"/>
        </mxCell>
      </root>
    </mxGraphModel>
  </diagram>
</mxfile>
